<?xml version="1.0" encoding="UTF-8" standalone="no"?>
<!DOCTYPE svg PUBLIC "-//W3C//DTD SVG 1.1//EN" "http://www.w3.org/Graphics/SVG/1.1/DTD/svg11.dtd">
<!-- Generated by Microsoft Visio, SVG Export model_set_version_index.svg Page-6 -->
<svg xmlns="http://www.w3.org/2000/svg" xmlns:xlink="http://www.w3.org/1999/xlink" xmlns:ev="http://www.w3.org/2001/xml-events"
		xmlns:v="http://schemas.microsoft.com/visio/2003/SVGExtensions/" width="4.16949in" height="5.83934in"
		viewBox="0 0 300.203 420.432" xml:space="preserve" color-interpolation-filters="sRGB" class="st19">
	<v:documentProperties v:langID="2057" v:metric="true" v:viewMarkup="false">
		<v:userDefs>
			<v:ud v:nameU="msvNoAutoConnect" v:val="VT0(1):26"/>
		</v:userDefs>
	</v:documentProperties>

	<style type="text/css">
	<![CDATA[
		.st1 {fill:#4bacc6;fill-opacity:0.41;stroke:none;stroke-linecap:round;stroke-linejoin:round;stroke-width:0.75}
		.st2 {fill:#000000;font-family:Calibri;font-size:0.75em}
		.st3 {font-size:1em}
		.st4 {fill:#f59d56;fill-opacity:0.41;stroke:none;stroke-linecap:round;stroke-linejoin:round;stroke-width:0.75}
		.st5 {visibility:visible}
		.st6 {fill:#000000;fill-opacity:0.4;filter:url(#filter_2.6666667461395);stroke:none;stroke-linecap:butt}
		.st7 {fill:#ffc000;stroke:none;stroke-linecap:butt;stroke-width:0.75}
		.st8 {fill:#ffffff;stroke:none;stroke-linecap:round;stroke-linejoin:round;stroke-width:0.75}
		.st9 {fill:#ffffff;stroke:#ffffff;stroke-linecap:butt;stroke-width:1.5}
		.st10 {fill:#7f7f7f;stroke:none;stroke-linecap:butt;stroke-width:0.75}
		.st11 {stroke:#000000;stroke-linecap:round;stroke-linejoin:round;stroke-width:0.75}
		.st12 {fill:#000000;font-family:Segoe UI Emoji;font-size:0.75em}
		.st13 {fill:#00188f;stroke:none;stroke-linecap:butt;stroke-width:0.75}
		.st14 {fill:#ffffff;stroke:#000000;stroke-linecap:round;stroke-linejoin:round;stroke-width:0.24}
		.st15 {fill:none;stroke:none;stroke-linecap:butt;stroke-width:0.75}
		.st16 {fill:#4bacc6;fill-opacity:0.5;stroke:#000000;stroke-linecap:round;stroke-linejoin:round;stroke-width:0.24}
		.st17 {fill:#f59d56;fill-opacity:0.5;stroke:#000000;stroke-linecap:round;stroke-linejoin:round;stroke-width:0.24}
		.st18 {fill:none;stroke:none;stroke-linecap:round;stroke-linejoin:round;stroke-width:0.75}
		.st19 {fill:none;fill-rule:evenodd;font-size:12px;overflow:visible;stroke-linecap:square;stroke-miterlimit:3}
	]]>
	</style>

	<defs id="Filters">
		<filter id="filter_2.6666667461395">
			<feGaussianBlur stdDeviation="2.6666667461395"/>
		</filter>
	</defs>
	<g v:mID="16" v:index="6" v:groupContext="foregroundPage">
		<title>Page-6</title>
		<v:pageProperties v:drawingScale="0.0393701" v:pageScale="0.0393701" v:drawingUnits="24" v:shadowOffsetX="8.50394"
				v:shadowOffsetY="-8.50394"/>
		<v:layer v:name="Connector" v:index="0"/>
		<v:layer v:name="Common Icons" v:index="1"/>
		<g id="shape357-1" v:mID="357" v:groupContext="shape" transform="translate(156.384,-60.8947)">
			<title>Sheet.357</title>
			<desc>Model Set Version 2</desc>
			<v:textBlock v:margins="rect(4,4,4,4)" v:tabSpace="42.5197" v:verticalAlign="2"/>
			<v:textRect cx="23.3858" cy="299.96" width="46.78" height="240.945"/>
			<rect x="0" y="179.487" width="46.7717" height="240.945" rx="11.3386" ry="11.3386" class="st1"/>
			<text x="4.7" y="402.93" class="st2" v:langID="2057"><v:paragraph v:horizAlign="1"/><v:tabList/>Model Set <tspan
						x="6.2" dy="1.2em" class="st3">Version 2</tspan></text>		</g>
		<g id="shape359-5" v:mID="359" v:groupContext="shape" transform="translate(-263.526,236.23) rotate(-90)">
			<title>Sheet.359</title>
			<rect x="0" y="368.476" width="46.7717" height="51.9561" rx="11.3386" ry="11.3386" class="st1"/>
		</g>
		<g id="shape358-7" v:mID="358" v:groupContext="shape" transform="translate(103.372,-60.8947)">
			<title>Sheet.358</title>
			<desc>Model Set Version 1</desc>
			<v:textBlock v:margins="rect(4,4,4,4)" v:tabSpace="42.5197" v:verticalAlign="2"/>
			<v:textRect cx="23.3858" cy="299.96" width="46.78" height="240.945"/>
			<rect x="0" y="179.487" width="46.7717" height="240.945" rx="11.3386" ry="11.3386" class="st4"/>
			<text x="4.7" y="402.93" class="st2" v:langID="2057"><v:paragraph v:horizAlign="1"/><v:tabList/>Model Set <tspan
						x="6.2" dy="1.2em" class="st3">Version 1</tspan></text>		</g>
		<g id="group1-11" transform="translate(22.2965,-339.463)" v:mID="1" v:groupContext="group">
			<title>Sheet.1</title>
			<g id="shape2-12" v:mID="2" v:groupContext="shape">
				<title>Folder.14</title>
				<g id="shadow2-13" v:groupContext="shadow" v:shadowOffsetX="2.12132" v:shadowOffsetY="-2.12132" v:shadowType="1"
						transform="matrix(1,0,0,1,2.12132,2.12132)" class="st5">
					<path d="M11.78 393.43 L5.55 393.43 C4.61 393.43 3.44 393.92 2.77 394.58 L1.16 396.18 C0.49 396.85 0 398.02 0
								 398.96 L0 417.92 C-0 419.31 1.13 420.43 2.51 420.43 L28.99 420.43 C30.37 420.43 31.5 419.31 31.5
								 417.92 L31.5 400.44 C31.5 399.06 30.37 397.93 28.99 397.93 L17.88 397.93 C17.73 397.9 17.39 397.72
								 17.2 397.55 L14.62 394.65 L14.59 394.61 L14.56 394.58 C13.88 393.9 12.73 393.43 11.78 393.43 Z"
							class="st6"/>
				</g>
				<path d="M11.78 393.43 L5.55 393.43 C4.61 393.43 3.44 393.92 2.77 394.58 L1.16 396.18 C0.49 396.85 0 398.02 0 398.96
							 L0 417.92 C-0 419.31 1.13 420.43 2.51 420.43 L28.99 420.43 C30.37 420.43 31.5 419.31 31.5 417.92 L31.5
							 400.44 C31.5 399.06 30.37 397.93 28.99 397.93 L17.88 397.93 C17.73 397.9 17.39 397.72 17.2 397.55 L14.62
							 394.65 L14.59 394.61 L14.56 394.58 C13.88 393.9 12.73 393.43 11.78 393.43 Z" class="st7"/>
			</g>
			<g id="group3-17" transform="translate(3.95744,-3.27316)" v:mID="3" v:groupContext="group">
				<title>gears (opaque).1011</title>
				<g id="shape4-18" v:mID="4" v:groupContext="shape" transform="translate(12.461,-4.09146)">
					<title>Sheet.4</title>
					<ellipse cx="3.75019" cy="416.74" rx="3.75019" ry="3.6925" class="st8"/>
				</g>
				<g id="shape5-20" v:mID="5" v:groupContext="shape" transform="translate(3.60203,-12.8017)">
					<title>Sheet.5</title>
					<ellipse cx="1.9355" cy="418.526" rx="1.9355" ry="1.90572" class="st8"/>
				</g>
				<g id="group6-22" v:mID="6" v:groupContext="group">
					<title>gears.3109</title>
					<g id="group7-23" transform="translate(-5.9952E-13,-9.04487)" v:mID="7" v:groupContext="group">
						<title>Sheet.7</title>
						<g id="shape8-24" v:mID="8" v:groupContext="shape">
							<title>Sheet.8</title>
							<path d="M5.59 416.65 C4.6 416.65 3.8 415.84 3.8 414.86 C3.8 413.88 4.61 413.09 5.59 413.09 C6.56 413.09
										 7.35 413.88 7.35 414.86 C7.35 415.84 6.56 416.65 5.59 416.65 ZM9.04 410.46 L7.61 411.2 L6.73
										 410.83 L6.18 409.29 L4.92 409.29 L4.42 410.83 L3.54 411.2 L2.06 410.5 L1.17 411.4 L1.9 412.83
										 L1.54 413.7 L0 414.26 L0 415.52 L1.53 416.02 L1.9 416.9 L1.2 418.37 L2.11 419.27 L3.54 418.54
										 L4.41 418.9 L4.97 420.43 L6.24 420.43 L6.74 418.9 L7.6 418.54 L9.08 419.23 L9.97 418.34
										 L9.25 416.91 L9.61 416.02 L11.14 415.47 L11.14 414.2 L9.61 413.7 L9.25 412.83 L9.95 411.37
										 L9.04 410.46 Z" class="st9"/>
						</g>
					</g>
					<g id="group9-26" transform="translate(8.27119,1.7053E-13)" v:mID="9" v:groupContext="group">
						<title>Sheet.9</title>
						<g id="shape10-27" v:mID="10" v:groupContext="shape">
							<title>Sheet.10</title>
							<path d="M7.89 415.09 C6.49 415.09 5.37 413.95 5.37 412.57 C5.37 411.19 6.5 410.06 7.89 410.06 C9.26
										 410.06 10.37 411.19 10.37 412.57 C10.38 413.95 9.26 415.09 7.89 415.09 ZM12.77 406.35 L10.74
										 407.39 L9.5 406.88 L8.72 404.71 L6.95 404.71 L6.24 406.88 L5 407.39 L2.91 406.41 L1.65 407.68
										 L2.69 409.71 L2.17 410.93 L0 411.72 L0 413.5 L2.16 414.2 L2.68 415.44 L1.69 417.52 L2.97
										 418.8 L5 417.76 L6.23 418.27 L7.02 420.43 L8.81 420.43 L9.51 418.27 L10.73 417.76 L12.82
										 418.74 L14.08 417.47 L13.06 415.46 L13.57 414.2 L15.73 413.43 L15.73 411.64 L13.57 410.93
										 L13.06 409.71 L14.05 407.64 L12.77 406.35 Z" class="st9"/>
						</g>
					</g>
				</g>
				<g id="group11-29" v:mID="11" v:groupContext="group">
					<title>gears</title>
					<g id="group12-30" transform="translate(-5.9952E-13,-9.04487)" v:mID="12" v:groupContext="group">
						<title>Sheet.12</title>
						<g id="shape13-31" v:mID="13" v:groupContext="shape">
							<title>Sheet.13</title>
							<path d="M5.59 416.65 C4.6 416.65 3.8 415.84 3.8 414.86 C3.8 413.88 4.61 413.09 5.59 413.09 C6.56 413.09
										 7.35 413.88 7.35 414.86 C7.35 415.84 6.56 416.65 5.59 416.65 ZM9.04 410.46 L7.61 411.2 L6.73
										 410.83 L6.18 409.29 L4.92 409.29 L4.42 410.83 L3.54 411.2 L2.06 410.5 L1.17 411.4 L1.9 412.83
										 L1.54 413.7 L0 414.26 L0 415.52 L1.53 416.02 L1.9 416.9 L1.2 418.37 L2.11 419.27 L3.54 418.54
										 L4.41 418.9 L4.97 420.43 L6.24 420.43 L6.74 418.9 L7.6 418.54 L9.08 419.23 L9.97 418.34
										 L9.25 416.91 L9.61 416.02 L11.14 415.47 L11.14 414.2 L9.61 413.7 L9.25 412.83 L9.95 411.37
										 L9.04 410.46 Z" class="st10"/>
						</g>
					</g>
					<g id="group14-33" transform="translate(8.27119,1.7053E-13)" v:mID="14" v:groupContext="group">
						<title>Sheet.14</title>
						<g id="shape15-34" v:mID="15" v:groupContext="shape">
							<title>Sheet.15</title>
							<path d="M7.89 415.09 C6.49 415.09 5.37 413.95 5.37 412.57 C5.37 411.19 6.5 410.06 7.89 410.06 C9.26
										 410.06 10.37 411.19 10.37 412.57 C10.38 413.95 9.26 415.09 7.89 415.09 ZM12.77 406.35 L10.74
										 407.39 L9.5 406.88 L8.72 404.71 L6.95 404.71 L6.24 406.88 L5 407.39 L2.91 406.41 L1.65 407.68
										 L2.69 409.71 L2.17 410.93 L0 411.72 L0 413.5 L2.16 414.2 L2.68 415.44 L1.69 417.52 L2.97
										 418.8 L5 417.76 L6.23 418.27 L7.02 420.43 L8.81 420.43 L9.51 418.27 L10.73 417.76 L12.82
										 418.74 L14.08 417.47 L13.06 415.46 L13.57 414.2 L15.73 413.43 L15.73 411.64 L13.57 410.93
										 L13.06 409.71 L14.05 407.64 L12.77 406.35 Z" class="st10"/>
						</g>
					</g>
				</g>
			</g>
		</g>
		<g id="shape16-36" v:mID="16" v:groupContext="shape" transform="translate(43.4977,-300.997)">
			<title>Folder.1243</title>
			<g id="shadow16-37" v:groupContext="shadow" v:shadowOffsetX="2.12132" v:shadowOffsetY="-2.12132" v:shadowType="1"
					transform="matrix(1,0,0,1,2.12132,2.12132)" class="st5">
				<path d="M11.78 393.43 L5.55 393.43 C4.61 393.43 3.44 393.92 2.77 394.58 L1.16 396.18 C0.49 396.85 0 398.02 0 398.96
							 L0 417.92 C-0 419.31 1.13 420.43 2.51 420.43 L28.99 420.43 C30.37 420.43 31.5 419.31 31.5 417.92 L31.5
							 400.44 C31.5 399.06 30.37 397.93 28.99 397.93 L17.88 397.93 C17.73 397.9 17.39 397.72 17.2 397.55 L14.62
							 394.65 L14.59 394.61 L14.56 394.58 C13.88 393.9 12.73 393.43 11.78 393.43 Z" class="st6"/>
			</g>
			<path d="M11.78 393.43 L5.55 393.43 C4.61 393.43 3.44 393.92 2.77 394.58 L1.16 396.18 C0.49 396.85 0 398.02 0 398.96
						 L0 417.92 C-0 419.31 1.13 420.43 2.51 420.43 L28.99 420.43 C30.37 420.43 31.5 419.31 31.5 417.92 L31.5 400.44
						 C31.5 399.06 30.37 397.93 28.99 397.93 L17.88 397.93 C17.73 397.9 17.39 397.72 17.2 397.55 L14.62 394.65
						 L14.59 394.61 L14.56 394.58 C13.88 393.9 12.73 393.43 11.78 393.43 Z" class="st7"/>
		</g>
		<g id="shape18-41" v:mID="18" v:groupContext="shape" v:layerMember="0" transform="translate(33.6622,-339.463)">
			<title>Dynamic connector.1245</title>
			<path d="M4.34 420.43 L4.34 445.4 L9.84 445.4" class="st11"/>
		</g>
		<g id="group68-44" transform="translate(116.899,-124.544)" v:mID="68" v:groupContext="group">
			<title>File, general (opaque).1000</title>
			<desc>c1</desc>
			<g id="group69-45" v:mID="69" v:groupContext="group">
				<title>Sheet.69</title>
				<g id="group70-46" v:mID="70" v:groupContext="group">
					<title>Sheet.70</title>
					<g id="shape71-47" v:mID="71" v:groupContext="shape">
						<title>Sheet.71</title>
						<path d="M20.11 394.05 L3.52 394.05 C1.57 394.05 0 395.62 0 397.57 L0 416.92 C0 418.86 1.57 420.43 3.52 420.43
									 L21.9 420.43 C23.83 420.43 25.41 418.86 25.41 416.92 L25.41 399.29 L20.11 394.05 Z"
								class="st9"/>
					</g>
				</g>
			</g>
			<g id="group72-49" transform="translate(0,-0.12)" v:mID="72" v:groupContext="group">
				<title>Sheet.72</title>
				<g id="group73-50" transform="translate(6.70181,-7.43156)" v:mID="73" v:groupContext="group">
					<title>Sheet.73</title>
					<g id="group74-51" transform="translate(0,-8.33138)" v:mID="74" v:groupContext="group">
						<title>Sheet.74</title>
						<g id="shape75-52" v:mID="75" v:groupContext="shape">
							<title>Sheet.75</title>
							<rect x="0" y="418.228" width="11.7585" height="2.20425" class="st10"/>
						</g>
					</g>
					<g id="group76-54" transform="translate(0,-4.16738)" v:mID="76" v:groupContext="group">
						<title>Sheet.76</title>
						<g id="shape77-55" v:mID="77" v:groupContext="shape">
							<title>Sheet.77</title>
							<rect x="0" y="418.228" width="11.7585" height="2.20425" class="st10"/>
						</g>
					</g>
					<g id="group78-57" v:mID="78" v:groupContext="group">
						<title>Sheet.78</title>
						<g id="shape79-58" v:mID="79" v:groupContext="shape">
							<title>Sheet.79</title>
							<rect x="0" y="418.226" width="11.7585" height="2.20575" class="st10"/>
						</g>
					</g>
				</g>
				<g id="group80-60" v:mID="80" v:groupContext="group">
					<title>Sheet.80</title>
					<g id="shape81-61" v:mID="81" v:groupContext="shape">
						<title>Sheet.81</title>
						<path d="M20.11 394.05 L3.52 394.05 C1.57 394.05 0 395.62 0 397.57 L0 416.92 C0 418.86 1.57 420.43 3.52 420.43
									 L21.9 420.43 C23.83 420.43 25.41 418.86 25.41 416.92 L25.41 399.29 L20.11 394.05 ZM21.89 418.31
									 L3.52 418.31 C2.75 418.31 2.14 417.68 2.14 416.92 L2.14 397.56 C2.14 396.8 2.75 396.19 3.52
									 396.19 L19.02 396.19 L19.02 400.53 L23.27 400.53 L23.27 416.91 C23.27 417.68 22.66 418.31 21.89
									 418.31 Z" class="st10"/>
					</g>
				</g>
			</g>
			<g id="shape68-63" v:mID="68" v:groupContext="groupContent">
				<v:textBlock v:margins="rect(0,0,0,0)" v:tabSpace="42.5197" v:verticalAlign="0"/>
				<v:textRect cx="12.7057" cy="443.343" width="72" height="31.5"/>
				<text x="8.2" y="435.69" class="st12" v:langID="2057"><v:paragraph v:horizAlign="1"/><v:tabList/>c1</text>			</g>
		</g>
		<g id="group82-65" transform="translate(163.571,-124.544)" v:mID="82" v:groupContext="group">
			<title>File, general (opaque).1014</title>
			<desc>c2</desc>
			<g id="group83-66" v:mID="83" v:groupContext="group">
				<title>Sheet.83</title>
				<g id="group84-67" v:mID="84" v:groupContext="group">
					<title>Sheet.84</title>
					<g id="shape85-68" v:mID="85" v:groupContext="shape">
						<title>Sheet.85</title>
						<path d="M20.11 394.05 L3.52 394.05 C1.57 394.05 0 395.62 0 397.57 L0 416.92 C0 418.86 1.57 420.43 3.52 420.43
									 L21.9 420.43 C23.83 420.43 25.41 418.86 25.41 416.92 L25.41 399.29 L20.11 394.05 Z"
								class="st9"/>
					</g>
				</g>
			</g>
			<g id="group86-70" transform="translate(0,-0.12)" v:mID="86" v:groupContext="group">
				<title>Sheet.86</title>
				<g id="group87-71" transform="translate(6.70181,-7.43156)" v:mID="87" v:groupContext="group">
					<title>Sheet.87</title>
					<g id="group88-72" transform="translate(0,-8.33138)" v:mID="88" v:groupContext="group">
						<title>Sheet.88</title>
						<g id="shape89-73" v:mID="89" v:groupContext="shape">
							<title>Sheet.89</title>
							<rect x="0" y="418.228" width="11.7585" height="2.20425" class="st10"/>
						</g>
					</g>
					<g id="group90-75" transform="translate(0,-4.16738)" v:mID="90" v:groupContext="group">
						<title>Sheet.90</title>
						<g id="shape91-76" v:mID="91" v:groupContext="shape">
							<title>Sheet.91</title>
							<rect x="0" y="418.228" width="11.7585" height="2.20425" class="st10"/>
						</g>
					</g>
					<g id="group92-78" v:mID="92" v:groupContext="group">
						<title>Sheet.92</title>
						<g id="shape93-79" v:mID="93" v:groupContext="shape">
							<title>Sheet.93</title>
							<rect x="0" y="418.226" width="11.7585" height="2.20575" class="st10"/>
						</g>
					</g>
				</g>
				<g id="group94-81" v:mID="94" v:groupContext="group">
					<title>Sheet.94</title>
					<g id="shape95-82" v:mID="95" v:groupContext="shape">
						<title>Sheet.95</title>
						<path d="M20.11 394.05 L3.52 394.05 C1.57 394.05 0 395.62 0 397.57 L0 416.92 C0 418.86 1.57 420.43 3.52 420.43
									 L21.9 420.43 C23.83 420.43 25.41 418.86 25.41 416.92 L25.41 399.29 L20.11 394.05 ZM21.89 418.31
									 L3.52 418.31 C2.75 418.31 2.14 417.68 2.14 416.92 L2.14 397.56 C2.14 396.8 2.75 396.19 3.52
									 396.19 L19.02 396.19 L19.02 400.53 L23.27 400.53 L23.27 416.91 C23.27 417.68 22.66 418.31 21.89
									 418.31 Z" class="st10"/>
					</g>
				</g>
			</g>
			<g id="shape82-84" v:mID="82" v:groupContext="groupContent">
				<v:textBlock v:margins="rect(0,0,0,0)" v:tabSpace="42.5197" v:verticalAlign="0"/>
				<v:textRect cx="12.7057" cy="443.343" width="72" height="31.5"/>
				<text x="8.2" y="435.69" class="st12" v:langID="2057"><v:paragraph v:horizAlign="1"/><v:tabList/>c2</text>			</g>
		</g>
		<g id="group96-86" transform="translate(73.3089,-123.83)" v:mID="96" v:groupContext="group">
			<title>Import generic (opaque).1098</title>
			<desc>Model Lineage C</desc>
			<g id="shape97-87" v:mID="97" v:groupContext="shape">
				<title>Sheet.97</title>
				<path d="M17.67 392.5 L3.09 392.5 C1.38 392.5 0 393.88 0 395.59 L0 417.34 C0 419.05 1.38 420.43 3.09 420.43 L19.24
							 420.43 C20.94 420.43 22.33 419.05 22.33 417.34 L22.33 397.1 L17.67 392.5 Z" class="st9"/>
			</g>
			<g id="shape98-89" v:mID="98" v:groupContext="shape">
				<title>Sheet.98</title>
				<path d="M17.67 392.5 L3.09 392.5 C1.38 392.5 0 393.88 0 395.59 L0 417.34 C0 419.05 1.38 420.43 3.09 420.43 L19.24
							 420.43 C20.94 420.43 22.33 419.05 22.33 417.34 L22.33 397.1 L17.67 392.5 ZM20.45 417.34 C20.45 418.01
							 19.91 418.56 19.24 418.56 L3.09 418.56 C2.42 418.56 1.88 418.01 1.88 417.34 L1.88 409.99 L9.71 409.99
							 L9.71 412.67 L16.92 407.26 L9.71 401.85 L9.71 405.02 L1.88 405.02 L1.88 395.59 C1.88 394.92 2.42 394.38
							 3.09 394.38 L16.71 394.38 L16.71 398.19 L20.45 398.19 L20.45 417.34 L20.45 417.34 Z" class="st13"/>
			</g>
			<g id="shape96-91" v:mID="96" v:groupContext="groupContent">
				<v:textBlock v:margins="rect(0,0,0,0)" v:tabSpace="42.5197" v:verticalAlign="0"/>
				<v:textRect cx="11.1652" cy="442.548" width="72" height="31.662"/>
				<text x="-1.61" y="434.82" class="st12" v:langID="2057"><v:paragraph v:horizAlign="1"/><v:tabList/>Model<v:newlineChar/><tspan
							x="-8.25" dy="1.2em" class="st3">Lineage C</tspan></text>			</g>
		</g>
		<g id="shape99-94" v:mID="99" v:groupContext="shape" v:layerMember="0" transform="translate(96.2867,-130.709)">
			<title>Dynamic connector.1101</title>
			<path d="M0 413.35 L19.82 413.35" class="st11"/>
		</g>
		<g id="shape100-97" v:mID="100" v:groupContext="shape" v:layerMember="0" transform="translate(143.105,-130.709)">
			<title>Dynamic connector.1102</title>
			<path d="M0 413.35 L19.67 413.35" class="st11"/>
		</g>
		<g id="group101-100" transform="translate(116.899,-195.411)" v:mID="101" v:groupContext="group">
			<title>File, general (opaque).1108</title>
			<desc>b1</desc>
			<g id="group102-101" v:mID="102" v:groupContext="group">
				<title>Sheet.102</title>
				<g id="group103-102" v:mID="103" v:groupContext="group">
					<title>Sheet.103</title>
					<g id="shape104-103" v:mID="104" v:groupContext="shape">
						<title>Sheet.104</title>
						<path d="M20.11 394.05 L3.52 394.05 C1.57 394.05 0 395.62 0 397.57 L0 416.92 C0 418.86 1.57 420.43 3.52 420.43
									 L21.9 420.43 C23.83 420.43 25.41 418.86 25.41 416.92 L25.41 399.29 L20.11 394.05 Z"
								class="st9"/>
					</g>
				</g>
			</g>
			<g id="group105-105" transform="translate(0,-0.12)" v:mID="105" v:groupContext="group">
				<title>Sheet.105</title>
				<g id="group106-106" transform="translate(6.70181,-7.43156)" v:mID="106" v:groupContext="group">
					<title>Sheet.106</title>
					<g id="group107-107" transform="translate(0,-8.33138)" v:mID="107" v:groupContext="group">
						<title>Sheet.107</title>
						<g id="shape108-108" v:mID="108" v:groupContext="shape">
							<title>Sheet.108</title>
							<rect x="0" y="418.228" width="11.7585" height="2.20425" class="st10"/>
						</g>
					</g>
					<g id="group109-110" transform="translate(0,-4.16738)" v:mID="109" v:groupContext="group">
						<title>Sheet.109</title>
						<g id="shape110-111" v:mID="110" v:groupContext="shape">
							<title>Sheet.110</title>
							<rect x="0" y="418.228" width="11.7585" height="2.20425" class="st10"/>
						</g>
					</g>
					<g id="group111-113" v:mID="111" v:groupContext="group">
						<title>Sheet.111</title>
						<g id="shape112-114" v:mID="112" v:groupContext="shape">
							<title>Sheet.112</title>
							<rect x="0" y="418.226" width="11.7585" height="2.20575" class="st10"/>
						</g>
					</g>
				</g>
				<g id="group113-116" v:mID="113" v:groupContext="group">
					<title>Sheet.113</title>
					<g id="shape114-117" v:mID="114" v:groupContext="shape">
						<title>Sheet.114</title>
						<path d="M20.11 394.05 L3.52 394.05 C1.57 394.05 0 395.62 0 397.57 L0 416.92 C0 418.86 1.57 420.43 3.52 420.43
									 L21.9 420.43 C23.83 420.43 25.41 418.86 25.41 416.92 L25.41 399.29 L20.11 394.05 ZM21.89 418.31
									 L3.52 418.31 C2.75 418.31 2.14 417.68 2.14 416.92 L2.14 397.56 C2.14 396.8 2.75 396.19 3.52
									 396.19 L19.02 396.19 L19.02 400.53 L23.27 400.53 L23.27 416.91 C23.27 417.68 22.66 418.31 21.89
									 418.31 Z" class="st10"/>
					</g>
				</g>
			</g>
			<g id="shape101-119" v:mID="101" v:groupContext="groupContent">
				<v:textBlock v:margins="rect(0,0,0,0)" v:tabSpace="42.5197" v:verticalAlign="0"/>
				<v:textRect cx="12.7057" cy="443.343" width="72" height="31.5"/>
				<text x="7.63" y="435.69" class="st12" v:langID="2057"><v:paragraph v:horizAlign="1"/><v:tabList/>b1</text>			</g>
		</g>
		<g id="group115-121" transform="translate(73.3089,-194.697)" v:mID="115" v:groupContext="group">
			<title>Import generic (opaque).1206</title>
			<desc>Model Lineage B</desc>
			<g id="shape116-122" v:mID="116" v:groupContext="shape">
				<title>Sheet.116</title>
				<path d="M17.67 392.5 L3.09 392.5 C1.38 392.5 0 393.88 0 395.59 L0 417.34 C0 419.05 1.38 420.43 3.09 420.43 L19.24
							 420.43 C20.94 420.43 22.33 419.05 22.33 417.34 L22.33 397.1 L17.67 392.5 Z" class="st9"/>
			</g>
			<g id="shape117-124" v:mID="117" v:groupContext="shape">
				<title>Sheet.117</title>
				<path d="M17.67 392.5 L3.09 392.5 C1.38 392.5 0 393.88 0 395.59 L0 417.34 C0 419.05 1.38 420.43 3.09 420.43 L19.24
							 420.43 C20.94 420.43 22.33 419.05 22.33 417.34 L22.33 397.1 L17.67 392.5 ZM20.45 417.34 C20.45 418.01
							 19.91 418.56 19.24 418.56 L3.09 418.56 C2.42 418.56 1.88 418.01 1.88 417.34 L1.88 409.99 L9.71 409.99
							 L9.71 412.67 L16.92 407.26 L9.71 401.85 L9.71 405.02 L1.88 405.02 L1.88 395.59 C1.88 394.92 2.42 394.38
							 3.09 394.38 L16.71 394.38 L16.71 398.19 L20.45 398.19 L20.45 417.34 L20.45 417.34 Z" class="st13"/>
			</g>
			<g id="shape115-126" v:mID="115" v:groupContext="groupContent">
				<v:textBlock v:margins="rect(0,0,0,0)" v:tabSpace="42.5197" v:verticalAlign="0"/>
				<v:textRect cx="11.1652" cy="442.548" width="72" height="31.662"/>
				<text x="-1.61" y="434.82" class="st12" v:langID="2057"><v:paragraph v:horizAlign="1"/><v:tabList/>Model<v:newlineChar/><tspan
							x="-8.05" dy="1.2em" class="st3">Lineage B</tspan></text>			</g>
		</g>
		<g id="shape118-129" v:mID="118" v:groupContext="shape" v:layerMember="0" transform="translate(96.2867,-201.575)">
			<title>Dynamic connector.1209</title>
			<path d="M0 413.35 L19.82 413.35" class="st11"/>
		</g>
		<g id="group119-132" transform="translate(116.899,-262.908)" v:mID="119" v:groupContext="group">
			<title>File, general (opaque).1216</title>
			<desc>a1</desc>
			<g id="group120-133" v:mID="120" v:groupContext="group">
				<title>Sheet.120</title>
				<g id="group121-134" v:mID="121" v:groupContext="group">
					<title>Sheet.121</title>
					<g id="shape122-135" v:mID="122" v:groupContext="shape">
						<title>Sheet.122</title>
						<path d="M20.11 394.05 L3.52 394.05 C1.57 394.05 0 395.62 0 397.57 L0 416.92 C0 418.86 1.57 420.43 3.52 420.43
									 L21.9 420.43 C23.83 420.43 25.41 418.86 25.41 416.92 L25.41 399.29 L20.11 394.05 Z"
								class="st9"/>
					</g>
				</g>
			</g>
			<g id="group123-137" transform="translate(0,-0.12)" v:mID="123" v:groupContext="group">
				<title>Sheet.123</title>
				<g id="group124-138" transform="translate(6.70181,-7.43156)" v:mID="124" v:groupContext="group">
					<title>Sheet.124</title>
					<g id="group125-139" transform="translate(0,-8.33138)" v:mID="125" v:groupContext="group">
						<title>Sheet.125</title>
						<g id="shape126-140" v:mID="126" v:groupContext="shape">
							<title>Sheet.126</title>
							<rect x="0" y="418.228" width="11.7585" height="2.20425" class="st10"/>
						</g>
					</g>
					<g id="group127-142" transform="translate(0,-4.16738)" v:mID="127" v:groupContext="group">
						<title>Sheet.127</title>
						<g id="shape128-143" v:mID="128" v:groupContext="shape">
							<title>Sheet.128</title>
							<rect x="0" y="418.228" width="11.7585" height="2.20425" class="st10"/>
						</g>
					</g>
					<g id="group129-145" v:mID="129" v:groupContext="group">
						<title>Sheet.129</title>
						<g id="shape130-146" v:mID="130" v:groupContext="shape">
							<title>Sheet.130</title>
							<rect x="0" y="418.226" width="11.7585" height="2.20575" class="st10"/>
						</g>
					</g>
				</g>
				<g id="group131-148" v:mID="131" v:groupContext="group">
					<title>Sheet.131</title>
					<g id="shape132-149" v:mID="132" v:groupContext="shape">
						<title>Sheet.132</title>
						<path d="M20.11 394.05 L3.52 394.05 C1.57 394.05 0 395.62 0 397.57 L0 416.92 C0 418.86 1.57 420.43 3.52 420.43
									 L21.9 420.43 C23.83 420.43 25.41 418.86 25.41 416.92 L25.41 399.29 L20.11 394.05 ZM21.89 418.31
									 L3.52 418.31 C2.75 418.31 2.14 417.68 2.14 416.92 L2.14 397.56 C2.14 396.8 2.75 396.19 3.52
									 396.19 L19.02 396.19 L19.02 400.53 L23.27 400.53 L23.27 416.91 C23.27 417.68 22.66 418.31 21.89
									 418.31 Z" class="st10"/>
					</g>
				</g>
			</g>
			<g id="shape119-151" v:mID="119" v:groupContext="groupContent">
				<v:textBlock v:margins="rect(0,0,0,0)" v:tabSpace="42.5197" v:verticalAlign="0"/>
				<v:textRect cx="12.7057" cy="443.343" width="72" height="31.5"/>
				<text x="7.99" y="435.69" class="st12" v:langID="2057"><v:paragraph v:horizAlign="1"/><v:tabList/>a1</text>			</g>
		</g>
		<g id="group133-153" transform="translate(163.571,-262.908)" v:mID="133" v:groupContext="group">
			<title>File, general (opaque).1230</title>
			<desc>a2</desc>
			<g id="group134-154" v:mID="134" v:groupContext="group">
				<title>Sheet.134</title>
				<g id="group135-155" v:mID="135" v:groupContext="group">
					<title>Sheet.135</title>
					<g id="shape136-156" v:mID="136" v:groupContext="shape">
						<title>Sheet.136</title>
						<path d="M20.11 394.05 L3.52 394.05 C1.57 394.05 0 395.62 0 397.57 L0 416.92 C0 418.86 1.57 420.43 3.52 420.43
									 L21.9 420.43 C23.83 420.43 25.41 418.86 25.41 416.92 L25.41 399.29 L20.11 394.05 Z"
								class="st9"/>
					</g>
				</g>
			</g>
			<g id="group137-158" transform="translate(0,-0.12)" v:mID="137" v:groupContext="group">
				<title>Sheet.137</title>
				<g id="group138-159" transform="translate(6.70181,-7.43156)" v:mID="138" v:groupContext="group">
					<title>Sheet.138</title>
					<g id="group139-160" transform="translate(0,-8.33138)" v:mID="139" v:groupContext="group">
						<title>Sheet.139</title>
						<g id="shape140-161" v:mID="140" v:groupContext="shape">
							<title>Sheet.140</title>
							<rect x="0" y="418.228" width="11.7585" height="2.20425" class="st10"/>
						</g>
					</g>
					<g id="group141-163" transform="translate(0,-4.16738)" v:mID="141" v:groupContext="group">
						<title>Sheet.141</title>
						<g id="shape142-164" v:mID="142" v:groupContext="shape">
							<title>Sheet.142</title>
							<rect x="0" y="418.228" width="11.7585" height="2.20425" class="st10"/>
						</g>
					</g>
					<g id="group143-166" v:mID="143" v:groupContext="group">
						<title>Sheet.143</title>
						<g id="shape144-167" v:mID="144" v:groupContext="shape">
							<title>Sheet.144</title>
							<rect x="0" y="418.226" width="11.7585" height="2.20575" class="st10"/>
						</g>
					</g>
				</g>
				<g id="group145-169" v:mID="145" v:groupContext="group">
					<title>Sheet.145</title>
					<g id="shape146-170" v:mID="146" v:groupContext="shape">
						<title>Sheet.146</title>
						<path d="M20.11 394.05 L3.52 394.05 C1.57 394.05 0 395.62 0 397.57 L0 416.92 C0 418.86 1.57 420.43 3.52 420.43
									 L21.9 420.43 C23.83 420.43 25.41 418.86 25.41 416.92 L25.41 399.29 L20.11 394.05 ZM21.89 418.31
									 L3.52 418.31 C2.75 418.31 2.14 417.68 2.14 416.92 L2.14 397.56 C2.14 396.8 2.75 396.19 3.52
									 396.19 L19.02 396.19 L19.02 400.53 L23.27 400.53 L23.27 416.91 C23.27 417.68 22.66 418.31 21.89
									 418.31 Z" class="st10"/>
					</g>
				</g>
			</g>
			<g id="shape133-172" v:mID="133" v:groupContext="groupContent">
				<v:textBlock v:margins="rect(0,0,0,0)" v:tabSpace="42.5197" v:verticalAlign="0"/>
				<v:textRect cx="12.7057" cy="443.343" width="72" height="31.5"/>
				<text x="7.99" y="435.69" class="st12" v:langID="2057"><v:paragraph v:horizAlign="1"/><v:tabList/>a2</text>			</g>
		</g>
		<g id="group147-174" transform="translate(73.3089,-262.194)" v:mID="147" v:groupContext="group">
			<title>Import generic (opaque).1314</title>
			<desc>Model Lineage A</desc>
			<g id="shape148-175" v:mID="148" v:groupContext="shape">
				<title>Sheet.148</title>
				<path d="M17.67 392.5 L3.09 392.5 C1.38 392.5 0 393.88 0 395.59 L0 417.34 C0 419.05 1.38 420.43 3.09 420.43 L19.24
							 420.43 C20.94 420.43 22.33 419.05 22.33 417.34 L22.33 397.1 L17.67 392.5 Z" class="st9"/>
			</g>
			<g id="shape149-177" v:mID="149" v:groupContext="shape">
				<title>Sheet.149</title>
				<path d="M17.67 392.5 L3.09 392.5 C1.38 392.5 0 393.88 0 395.59 L0 417.34 C0 419.05 1.38 420.43 3.09 420.43 L19.24
							 420.43 C20.94 420.43 22.33 419.05 22.33 417.34 L22.33 397.1 L17.67 392.5 ZM20.45 417.34 C20.45 418.01
							 19.91 418.56 19.24 418.56 L3.09 418.56 C2.42 418.56 1.88 418.01 1.88 417.34 L1.88 409.99 L9.71 409.99
							 L9.71 412.67 L16.92 407.26 L9.71 401.85 L9.71 405.02 L1.88 405.02 L1.88 395.59 C1.88 394.92 2.42 394.38
							 3.09 394.38 L16.71 394.38 L16.71 398.19 L20.45 398.19 L20.45 417.34 L20.45 417.34 Z" class="st13"/>
			</g>
			<g id="shape147-179" v:mID="147" v:groupContext="groupContent">
				<v:textBlock v:margins="rect(0,0,0,0)" v:tabSpace="42.5197" v:verticalAlign="0"/>
				<v:textRect cx="11.1652" cy="442.548" width="72" height="31.662"/>
				<text x="-1.61" y="434.82" class="st12" v:langID="2057"><v:paragraph v:horizAlign="1"/><v:tabList/>Model <v:newlineChar/><tspan
							x="-8.37" dy="1.2em" class="st3">Lineage A</tspan></text>			</g>
		</g>
		<g id="shape150-182" v:mID="150" v:groupContext="shape" v:layerMember="0" transform="translate(96.2867,-269.073)">
			<title>Dynamic connector.1317</title>
			<path d="M0 413.35 L19.82 413.35" class="st11"/>
		</g>
		<g id="shape151-185" v:mID="151" v:groupContext="shape" v:layerMember="0" transform="translate(143.105,-269.073)">
			<title>Dynamic connector.1318</title>
			<path d="M0 413.35 L19.67 413.35" class="st11"/>
		</g>
		<g id="shape152-188" v:mID="152" v:groupContext="shape" v:layerMember="0" transform="translate(58.5636,-300.997)">
			<title>Dynamic connector</title>
			<path d="M0.64 420.43 L0.64 445.27 L13.54 445.27" class="st11"/>
		</g>
		<g id="shape153-191" v:mID="153" v:groupContext="shape" v:layerMember="0" transform="translate(58.5636,-300.997)">
			<title>Dynamic connector.153</title>
			<path d="M0.64 420.43 L0.64 512.77 L13.54 512.77" class="st11"/>
		</g>
		<g id="shape154-194" v:mID="154" v:groupContext="shape" v:layerMember="0" transform="translate(58.5636,-300.997)">
			<title>Dynamic connector.154</title>
			<path d="M0.64 420.43 L0.64 583.63 L13.54 583.63" class="st11"/>
		</g>
		<g id="group328-197" transform="translate(132.289,-257.052)" v:mID="328" v:groupContext="group">
			<v:userDefs>
				<v:ud v:nameU="visVersion" v:prompt="" v:val="VT0(15):26"/>
			</v:userDefs>
			<title>Can.328</title>
			<g id="shape329-198" v:mID="329" v:groupContext="shape">
				<title>Sheet.329</title>
				<v:userDefs>
					<v:ud v:nameU="ControlHalfHeight" v:prompt="" v:val="VT0(0.11811023622047):24"/>
					<v:ud v:nameU="FillForegnd" v:prompt="" v:val="VT5(1)"/>
					<v:ud v:nameU="ControlHalfHeight" v:prompt="" v:val="VT0(0.022834619447611):1"/>
				</v:userDefs>
				<path d="M0 418.79 A8.22046 1.64409 -180 0 0 16.44 418.79 L16.44 405.64 L0 405.64 L0 418.79 Z" class="st14"/>
			</g>
			<g id="shape328-200" v:mID="328" v:groupContext="groupContent">
				<ellipse cx="8.22046" cy="405.635" rx="8.22046" ry="1.64409" class="st14"/>
			</g>
		</g>
		<g id="group330-202" transform="translate(180.762,-257.052)" v:mID="330" v:groupContext="group">
			<v:userDefs>
				<v:ud v:nameU="visVersion" v:prompt="" v:val="VT0(15):26"/>
			</v:userDefs>
			<title>Can.330</title>
			<g id="shape331-203" v:mID="331" v:groupContext="shape">
				<title>Sheet.331</title>
				<v:userDefs>
					<v:ud v:nameU="ControlHalfHeight" v:prompt="" v:val="VT0(0.11811023622047):24"/>
					<v:ud v:nameU="FillForegnd" v:prompt="" v:val="VT5(1)"/>
					<v:ud v:nameU="ControlHalfHeight" v:prompt="" v:val="VT0(0.022834619447611):1"/>
				</v:userDefs>
				<path d="M0 418.79 A8.22046 1.64409 -180 0 0 16.44 418.79 L16.44 405.64 L0 405.64 L0 418.79 Z" class="st14"/>
			</g>
			<g id="shape330-205" v:mID="330" v:groupContext="groupContent">
				<ellipse cx="8.22046" cy="405.635" rx="8.22046" ry="1.64409" class="st14"/>
			</g>
		</g>
		<g id="group332-207" transform="translate(180.762,-117.588)" v:mID="332" v:groupContext="group">
			<v:userDefs>
				<v:ud v:nameU="visVersion" v:prompt="" v:val="VT0(15):26"/>
			</v:userDefs>
			<title>Can.332</title>
			<g id="shape333-208" v:mID="333" v:groupContext="shape">
				<title>Sheet.333</title>
				<v:userDefs>
					<v:ud v:nameU="ControlHalfHeight" v:prompt="" v:val="VT0(0.11811023622047):24"/>
					<v:ud v:nameU="FillForegnd" v:prompt="" v:val="VT5(1)"/>
					<v:ud v:nameU="ControlHalfHeight" v:prompt="" v:val="VT0(0.022834619447611):1"/>
				</v:userDefs>
				<path d="M0 418.79 A8.22046 1.64409 -180 0 0 16.44 418.79 L16.44 405.64 L0 405.64 L0 418.79 Z" class="st14"/>
			</g>
			<g id="shape332-210" v:mID="332" v:groupContext="groupContent">
				<ellipse cx="8.22046" cy="405.635" rx="8.22046" ry="1.64409" class="st14"/>
			</g>
		</g>
		<g id="group334-212" transform="translate(132.289,-117.588)" v:mID="334" v:groupContext="group">
			<v:userDefs>
				<v:ud v:nameU="visVersion" v:prompt="" v:val="VT0(15):26"/>
			</v:userDefs>
			<title>Can.334</title>
			<g id="shape335-213" v:mID="335" v:groupContext="shape">
				<title>Sheet.335</title>
				<v:userDefs>
					<v:ud v:nameU="ControlHalfHeight" v:prompt="" v:val="VT0(0.11811023622047):24"/>
					<v:ud v:nameU="FillForegnd" v:prompt="" v:val="VT5(1)"/>
					<v:ud v:nameU="ControlHalfHeight" v:prompt="" v:val="VT0(0.022834619447611):1"/>
				</v:userDefs>
				<path d="M0 418.79 A8.22046 1.64409 -180 0 0 16.44 418.79 L16.44 405.64 L0 405.64 L0 418.79 Z" class="st14"/>
			</g>
			<g id="shape334-215" v:mID="334" v:groupContext="groupContent">
				<ellipse cx="8.22046" cy="405.635" rx="8.22046" ry="1.64409" class="st14"/>
			</g>
		</g>
		<g id="group336-217" transform="translate(132.289,-188.454)" v:mID="336" v:groupContext="group">
			<v:userDefs>
				<v:ud v:nameU="visVersion" v:prompt="" v:val="VT0(15):26"/>
			</v:userDefs>
			<title>Can.336</title>
			<g id="shape337-218" v:mID="337" v:groupContext="shape">
				<title>Sheet.337</title>
				<v:userDefs>
					<v:ud v:nameU="ControlHalfHeight" v:prompt="" v:val="VT0(0.11811023622047):24"/>
					<v:ud v:nameU="FillForegnd" v:prompt="" v:val="VT5(1)"/>
					<v:ud v:nameU="ControlHalfHeight" v:prompt="" v:val="VT0(0.022834619447611):1"/>
				</v:userDefs>
				<path d="M0 418.79 A8.22046 1.64409 -180 0 0 16.44 418.79 L16.44 405.64 L0 405.64 L0 418.79 Z" class="st14"/>
			</g>
			<g id="shape336-220" v:mID="336" v:groupContext="groupContent">
				<ellipse cx="8.22046" cy="405.635" rx="8.22046" ry="1.64409" class="st14"/>
			</g>
		</g>
		<g id="group338-222" transform="translate(103.943,-374.549)" v:mID="338" v:groupContext="group">
			<title>File, general (opaque).338</title>
			<desc>Model Version</desc>
			<g id="group339-223" v:mID="339" v:groupContext="group">
				<title>Sheet.339</title>
				<g id="group340-224" v:mID="340" v:groupContext="group">
					<title>Sheet.340</title>
					<g id="shape341-225" v:mID="341" v:groupContext="shape">
						<title>Sheet.341</title>
						<path d="M20.11 394.05 L3.52 394.05 C1.57 394.05 0 395.62 0 397.57 L0 416.92 C0 418.86 1.57 420.43 3.52 420.43
									 L21.9 420.43 C23.83 420.43 25.41 418.86 25.41 416.92 L25.41 399.29 L20.11 394.05 Z"
								class="st9"/>
					</g>
				</g>
			</g>
			<g id="group342-227" transform="translate(0,-0.12)" v:mID="342" v:groupContext="group">
				<title>Sheet.342</title>
				<g id="group343-228" transform="translate(6.70181,-7.43156)" v:mID="343" v:groupContext="group">
					<title>Sheet.343</title>
					<g id="group344-229" transform="translate(0,-8.33138)" v:mID="344" v:groupContext="group">
						<title>Sheet.344</title>
						<g id="shape345-230" v:mID="345" v:groupContext="shape">
							<title>Sheet.345</title>
							<rect x="0" y="418.228" width="11.7585" height="2.20425" class="st10"/>
						</g>
					</g>
					<g id="group346-232" transform="translate(0,-4.16738)" v:mID="346" v:groupContext="group">
						<title>Sheet.346</title>
						<g id="shape347-233" v:mID="347" v:groupContext="shape">
							<title>Sheet.347</title>
							<rect x="0" y="418.228" width="11.7585" height="2.20425" class="st10"/>
						</g>
					</g>
					<g id="group348-235" v:mID="348" v:groupContext="group">
						<title>Sheet.348</title>
						<g id="shape349-236" v:mID="349" v:groupContext="shape">
							<title>Sheet.349</title>
							<rect x="0" y="418.226" width="11.7585" height="2.20575" class="st10"/>
						</g>
					</g>
				</g>
				<g id="group350-238" v:mID="350" v:groupContext="group">
					<title>Sheet.350</title>
					<g id="shape351-239" v:mID="351" v:groupContext="shape">
						<title>Sheet.351</title>
						<path d="M20.11 394.05 L3.52 394.05 C1.57 394.05 0 395.62 0 397.57 L0 416.92 C0 418.86 1.57 420.43 3.52 420.43
									 L21.9 420.43 C23.83 420.43 25.41 418.86 25.41 416.92 L25.41 399.29 L20.11 394.05 ZM21.89 418.31
									 L3.52 418.31 C2.75 418.31 2.14 417.68 2.14 416.92 L2.14 397.56 C2.14 396.8 2.75 396.19 3.52
									 396.19 L19.02 396.19 L19.02 400.53 L23.27 400.53 L23.27 416.91 C23.27 417.68 22.66 418.31 21.89
									 418.31 Z" class="st10"/>
					</g>
				</g>
			</g>
			<g id="shape338-241" v:mID="338" v:groupContext="groupContent">
				<v:textBlock v:margins="rect(0,0,0,0)" v:tabSpace="42.5197" v:verticalAlign="0"/>
				<v:textRect cx="12.7057" cy="443.343" width="72" height="31.5"/>
				<text x="-0.06" y="435.69" class="st12" v:langID="2057"><v:paragraph v:horizAlign="1"/><v:tabList/>Model<v:newlineChar/><tspan
							x="-2.19" dy="1.2em" class="st3">Version</tspan></text>			</g>
		</g>
		<g id="group352-244" transform="translate(166.588,-378.658)" v:mID="352" v:groupContext="group">
			<v:userDefs>
				<v:ud v:nameU="visVersion" v:prompt="" v:val="VT0(15):26"/>
			</v:userDefs>
			<title>Can.352</title>
			<g id="shape353-245" v:mID="353" v:groupContext="shape">
				<title>Sheet.353</title>
				<v:userDefs>
					<v:ud v:nameU="ControlHalfHeight" v:prompt="" v:val="VT0(0.11811023622047):24"/>
					<v:ud v:nameU="FillForegnd" v:prompt="" v:val="VT5(1)"/>
					<v:ud v:nameU="ControlHalfHeight" v:prompt="" v:val="VT0(0.022834619447611):1"/>
				</v:userDefs>
				<path d="M0 418.79 A8.22046 1.64409 -180 0 0 16.44 418.79 L16.44 405.64 L0 405.64 L0 418.79 Z" class="st14"/>
			</g>
			<g id="shape352-247" v:mID="352" v:groupContext="groupContent">
				<ellipse cx="8.22046" cy="405.635" rx="8.22046" ry="1.64409" class="st14"/>
			</g>
		</g>
		<g id="shape354-249" v:mID="354" v:groupContext="shape" transform="translate(149.158,-344.359)">
			<title>File, general (opaque).354</title>
			<desc>Model Version Property Data</desc>
			<v:textBlock v:margins="rect(0,0,0,0)" v:tabSpace="42.5197" v:verticalAlign="0"/>
			<v:textRect cx="25.6508" cy="407.181" width="51.31" height="26.5027"/>
			<rect x="0" y="393.929" width="51.3017" height="26.5027" class="st15"/>
			<text x="12.88" y="402.03" class="st12" v:langID="2057"><v:paragraph v:horizAlign="1"/><v:tabList/>Model <tspan
						x="10.76" dy="1.2em" class="st3">Version<v:newlineChar/></tspan><tspan x="8.66" dy="1.2em" class="st3">Property<v:newlineChar/></tspan><tspan
						x="16.39" dy="1.2em" class="st3">Data</tspan></text>		</g>
		<g id="group360-255" transform="translate(169.572,-24.3278)" v:mID="360" v:groupContext="group">
			<v:userDefs>
				<v:ud v:nameU="visVersion" v:prompt="" v:val="VT0(15):26"/>
			</v:userDefs>
			<title>Can.360</title>
			<g id="shape361-256" v:mID="361" v:groupContext="shape">
				<title>Sheet.361</title>
				<v:userDefs>
					<v:ud v:nameU="ControlHalfHeight" v:prompt="" v:val="VT0(0.11811023622047):24"/>
					<v:ud v:nameU="FillForegnd" v:prompt="" v:val="VT5(1)"/>
					<v:ud v:nameU="ControlHalfHeight" v:prompt="" v:val="VT0(0.031102349778523):1"/>
					<v:ud v:nameU="FillForegnd" v:prompt="" v:val="VT5(#4bacc6)"/>
				</v:userDefs>
				<path d="M0 418.19 A11.1968 2.23937 -180 1 0 22.39 418.19 L22.39 400.28 L0 400.28 L0 418.19 Z" class="st16"/>
			</g>
			<g id="shape360-258" v:mID="360" v:groupContext="groupContent">
				<ellipse cx="11.1968" cy="400.278" rx="11.1968" ry="2.23937" class="st16"/>
			</g>
		</g>
		<g id="group362-260" transform="translate(115.132,-24.3278)" v:mID="362" v:groupContext="group">
			<v:userDefs>
				<v:ud v:nameU="visVersion" v:prompt="" v:val="VT0(15):26"/>
			</v:userDefs>
			<title>Can.362</title>
			<g id="shape363-261" v:mID="363" v:groupContext="shape">
				<title>Sheet.363</title>
				<v:userDefs>
					<v:ud v:nameU="ControlHalfHeight" v:prompt="" v:val="VT0(0.11811023622047):24"/>
					<v:ud v:nameU="FillForegnd" v:prompt="" v:val="VT5(1)"/>
					<v:ud v:nameU="ControlHalfHeight" v:prompt="" v:val="VT0(0.031102349778523):1"/>
					<v:ud v:nameU="FillForegnd" v:prompt="" v:val="VT5(#f59d56)"/>
				</v:userDefs>
				<path d="M0 418.19 A11.1968 2.23937 -180 1 0 22.39 418.19 L22.39 400.28 L0 400.28 L0 418.19 Z" class="st17"/>
			</g>
			<g id="shape362-263" v:mID="362" v:groupContext="groupContent">
				<ellipse cx="11.1968" cy="400.278" rx="11.1968" ry="2.23937" class="st17"/>
			</g>
		</g>
		<g id="shape364-265" v:mID="364" v:groupContext="shape" transform="translate(209.522,-18.375)">
			<title>Sheet.364</title>
			<desc>Model Set Version Index</desc>
			<v:textBlock v:margins="rect(4,4,4,4)" v:tabSpace="42.5197" v:verticalAlign="2"/>
			<v:textRect cx="36.1529" cy="403.089" width="72.31" height="34.6871"/>
			<rect x="0" y="385.745" width="72.3059" height="34.6871" rx="11.3386" ry="11.3386" class="st18"/>
			<text x="17.47" y="402.93" class="st2" v:langID="2057"><v:paragraph v:horizAlign="1"/><v:tabList/>Model Set<v:newlineChar/><tspan
						x="11.19" dy="1.2em" class="st3">Version Index</tspan></text>		</g>
	</g>
</svg>
